STARTFONT 2.1
COMMENT screen font, 14 x 26 pixels
FONT -misc-fixed-medium-r-normal-serif-26-200-75-75-c-140-iso8859-2
SIZE 26 75 75
FONTBOUNDINGBOX 14 26 0 -6
STARTPROPERTIES 25
FONT_ASCENT 20
FONT_DESCENT 6
DEFAULT_CHAR 0
FONTNAME_REGISTRY ""
FOUNDRY "Misc"
FAMILY_NAME "Fixed"
WEIGHT_NAME "Medium"
SLANT "R"
SETWIDTH_NAME "Normal"
ADD_STYLE_NAME "Serif"
PIXEL_SIZE 26
POINT_SIZE 200
RESOLUTION_X 75
RESOLUTION_Y 75
SPACING "C"
AVERAGE_WIDTH 140
CHARSET_REGISTRY "ISO8859"
CHARSET_ENCODING "2"
COPYRIGHT "Libor Skarvada, libor@informatics.muni.cz"
FONT "-Misc-Fixed-Medium-R-Normal-Serif-26-200-75-75-C-140-ISO8859-2"
WEIGHT 10
RESOLUTION 170
CAP_HEIGHT 16
X_HEIGHT 10
QUAD_WIDTH 14
ENDPROPERTIES
CHARS 224
STARTCHAR 0
ENCODING 0
SWIDTH 539 0
DWIDTH 14 0
BBX 1 1 0 -6
BITMAP
00
ENDCHAR
STARTCHAR 1
ENCODING 1
SWIDTH 539 0
DWIDTH 14 0
BBX 11 11 1 3
BITMAP
0400
0e00
1f00
3f80
7fc0
ffe0
7fc0
3f80
1f00
0e00
0400
ENDCHAR
STARTCHAR 2
ENCODING 2
SWIDTH 539 0
DWIDTH 14 0
BBX 14 26 0 -6
BITMAP
5554
aaa8
5554
aaa8
5554
aaa8
5554
aaa8
5554
aaa8
5554
aaa8
5554
aaa8
5554
aaa8
5554
aaa8
5554
aaa8
5554
aaa8
5554
aaa8
5554
aaa8
ENDCHAR
STARTCHAR 3
ENCODING 3
SWIDTH 539 0
DWIDTH 14 0
BBX 12 21 1 -3
BITMAP
8400
8400
8400
8400
fc00
8400
8400
8400
8400
8400
0000
07f0
0080
0080
0080
0080
0080
0080
0080
0080
0080
ENDCHAR
STARTCHAR 4
ENCODING 4
SWIDTH 539 0
DWIDTH 14 0
BBX 12 21 1 -3
BITMAP
fc00
8000
8000
8000
f800
8000
8000
8000
8000
8000
0000
03f0
0200
0200
0200
03e0
0200
0200
0200
0200
0200
ENDCHAR
STARTCHAR 5
ENCODING 5
SWIDTH 539 0
DWIDTH 14 0
BBX 12 21 1 -3
BITMAP
7800
8400
8400
8000
8000
8000
8000
8400
8400
7800
0000
03e0
0210
0210
0210
03e0
0220
0210
0210
0210
0210
ENDCHAR
STARTCHAR 6
ENCODING 6
SWIDTH 539 0
DWIDTH 14 0
BBX 12 21 1 -3
BITMAP
8000
8000
8000
8000
8000
8000
8000
8000
8000
fc00
0000
03f0
0200
0200
0200
03e0
0200
0200
0200
0200
0200
ENDCHAR
STARTCHAR 7
ENCODING 7
SWIDTH 539 0
DWIDTH 14 0
BBX 7 6 2 11
BITMAP
38
6c
c6
c6
6c
38
ENDCHAR
STARTCHAR 8
ENCODING 8
SWIDTH 539 0
DWIDTH 14 0
BBX 10 14 2 1
BITMAP
0c00
0c00
0c00
0c00
ffc0
ffc0
0c00
0c00
0c00
0c00
0000
0000
ffc0
ffc0
ENDCHAR
STARTCHAR 9
ENCODING 9
SWIDTH 539 0
DWIDTH 14 0
BBX 12 21 1 -3
BITMAP
8400
c400
c400
a400
a400
9400
9400
8c00
8c00
8400
0000
0200
0200
0200
0200
0200
0200
0200
0200
0200
03f0
ENDCHAR
STARTCHAR 10
ENCODING 10
SWIDTH 539 0
DWIDTH 14 0
BBX 12 21 1 -3
BITMAP
8200
8200
4400
4400
4400
2800
2800
2800
1000
1000
0000
07f0
0080
0080
0080
0080
0080
0080
0080
0080
0080
ENDCHAR
STARTCHAR 11
ENCODING 11
SWIDTH 539 0
DWIDTH 14 0
BBX 8 14 0 6
BITMAP
03
03
03
03
03
03
03
03
03
03
03
03
ff
ff
ENDCHAR
STARTCHAR 12
ENCODING 12
SWIDTH 539 0
DWIDTH 14 0
BBX 8 14 0 -6
BITMAP
ff
ff
03
03
03
03
03
03
03
03
03
03
03
03
ENDCHAR
STARTCHAR 13
ENCODING 13
SWIDTH 539 0
DWIDTH 14 0
BBX 8 14 6 -6
BITMAP
ff
ff
c0
c0
c0
c0
c0
c0
c0
c0
c0
c0
c0
c0
ENDCHAR
STARTCHAR 14
ENCODING 14
SWIDTH 539 0
DWIDTH 14 0
BBX 8 14 6 6
BITMAP
c0
c0
c0
c0
c0
c0
c0
c0
c0
c0
c0
c0
ff
ff
ENDCHAR
STARTCHAR 15
ENCODING 15
SWIDTH 539 0
DWIDTH 14 0
BBX 14 26 0 -6
BITMAP
0300
0300
0300
0300
0300
0300
0300
0300
0300
0300
0300
0300
fffc
fffc
0300
0300
0300
0300
0300
0300
0300
0300
0300
0300
0300
0300
ENDCHAR
STARTCHAR 16
ENCODING 16
SWIDTH 539 0
DWIDTH 14 0
BBX 14 2 0 16
BITMAP
fffc
fffc
ENDCHAR
STARTCHAR 17
ENCODING 17
SWIDTH 539 0
DWIDTH 14 0
BBX 14 2 0 11
BITMAP
fffc
fffc
ENDCHAR
STARTCHAR 18
ENCODING 18
SWIDTH 539 0
DWIDTH 14 0
BBX 14 2 0 6
BITMAP
fffc
fffc
ENDCHAR
STARTCHAR 19
ENCODING 19
SWIDTH 539 0
DWIDTH 14 0
BBX 14 2 0 1
BITMAP
fffc
fffc
ENDCHAR
STARTCHAR 20
ENCODING 20
SWIDTH 539 0
DWIDTH 14 0
BBX 14 2 0 -4
BITMAP
fffc
fffc
ENDCHAR
STARTCHAR 21
ENCODING 21
SWIDTH 539 0
DWIDTH 14 0
BBX 8 26 6 -6
BITMAP
c0
c0
c0
c0
c0
c0
c0
c0
c0
c0
c0
c0
ff
ff
c0
c0
c0
c0
c0
c0
c0
c0
c0
c0
c0
c0
ENDCHAR
STARTCHAR 22
ENCODING 22
SWIDTH 539 0
DWIDTH 14 0
BBX 8 26 0 -6
BITMAP
03
03
03
03
03
03
03
03
03
03
03
03
ff
ff
03
03
03
03
03
03
03
03
03
03
03
03
ENDCHAR
STARTCHAR 23
ENCODING 23
SWIDTH 539 0
DWIDTH 14 0
BBX 14 14 0 6
BITMAP
0300
0300
0300
0300
0300
0300
0300
0300
0300
0300
0300
0300
fffc
fffc
ENDCHAR
STARTCHAR 24
ENCODING 24
SWIDTH 539 0
DWIDTH 14 0
BBX 14 14 0 -6
BITMAP
fffc
fffc
0300
0300
0300
0300
0300
0300
0300
0300
0300
0300
0300
0300
ENDCHAR
STARTCHAR 25
ENCODING 25
SWIDTH 539 0
DWIDTH 14 0
BBX 2 26 6 -6
BITMAP
c0
c0
c0
c0
c0
c0
c0
c0
c0
c0
c0
c0
c0
c0
c0
c0
c0
c0
c0
c0
c0
c0
c0
c0
c0
c0
ENDCHAR
STARTCHAR 26
ENCODING 26
SWIDTH 539 0
DWIDTH 14 0
BBX 12 15 1 0
BITMAP
0030
00f0
03c0
0f00
3c00
f000
f000
3c00
0f00
03c0
00f0
0030
0000
fff0
fff0
ENDCHAR
STARTCHAR 27
ENCODING 27
SWIDTH 539 0
DWIDTH 14 0
BBX 12 15 1 0
BITMAP
c000
f000
3c00
0f00
03c0
00f0
00f0
03c0
0f00
3c00
f000
c000
0000
fff0
fff0
ENDCHAR
STARTCHAR 28
ENCODING 28
SWIDTH 539 0
DWIDTH 14 0
BBX 12 11 1 0
BITMAP
0010
1ff0
7fe0
d980
1980
1980
1980
1980
1980
3980
71c0
ENDCHAR
STARTCHAR 29
ENCODING 29
SWIDTH 539 0
DWIDTH 14 0
BBX 12 12 1 2
BITMAP
0030
0060
00c0
fff0
fff0
0700
0e00
fff0
fff0
3000
6000
c000
ENDCHAR
STARTCHAR 30
ENCODING 30
SWIDTH 539 0
DWIDTH 14 0
BBX 12 16 1 0
BITMAP
03c0
0660
0660
0c40
0c00
0c00
0c00
3f00
0c00
0c00
0c00
0c00
1800
7830
dff0
73c0
ENDCHAR
STARTCHAR 31
ENCODING 31
SWIDTH 539 0
DWIDTH 14 0
BBX 2 2 6 6
BITMAP
c0
c0
ENDCHAR
STARTCHAR 32
ENCODING 32
SWIDTH 539 0
DWIDTH 14 0
BBX 1 1 0 -6
BITMAP
00
ENDCHAR
STARTCHAR 33
ENCODING 33
SWIDTH 539 0
DWIDTH 14 0
BBX 4 18 5 -1
BITMAP
60
f0
f0
f0
f0
f0
f0
60
60
60
60
60
00
00
60
f0
f0
60
ENDCHAR
STARTCHAR 34
ENCODING 34
SWIDTH 539 0
DWIDTH 14 0
BBX 8 7 3 10
BITMAP
e7
e7
e7
e7
42
42
42
ENDCHAR
STARTCHAR 35
ENCODING 35
SWIDTH 539 0
DWIDTH 14 0
BBX 12 18 1 -1
BITMAP
1980
1980
1980
1980
1980
fff0
fff0
1980
1980
1980
1980
fff0
fff0
1980
1980
1980
1980
1980
ENDCHAR
STARTCHAR 36
ENCODING 36
SWIDTH 539 0
DWIDTH 14 0
BBX 10 22 2 -3
BITMAP
0c00
0c00
0c00
3f00
61c0
c0c0
c040
c000
e000
7000
3c00
0f00
0380
01c0
00c0
80c0
c0c0
e180
3f00
0c00
0c00
0c00
ENDCHAR
STARTCHAR 37
ENCODING 37
SWIDTH 539 0
DWIDTH 14 0
BBX 12 18 1 -1
BITMAP
7860
cc60
ccc0
ccc0
cd80
7980
0300
0300
0600
0600
0c00
0c00
19e0
1b30
3330
3330
6330
61e0
ENDCHAR
STARTCHAR 38
ENCODING 38
SWIDTH 539 0
DWIDTH 14 0
BBX 12 18 1 -1
BITMAP
1e00
3300
6180
6180
6180
6180
3300
1e00
1c00
3600
6630
6330
c360
c1c0
c0c0
c1c0
6360
3e70
ENDCHAR
STARTCHAR 39
ENCODING 39
SWIDTH 539 0
DWIDTH 14 0
BBX 5 7 4 10
BITMAP
30
78
78
38
30
60
c0
ENDCHAR
STARTCHAR 40
ENCODING 40
SWIDTH 539 0
DWIDTH 14 0
BBX 6 22 4 -3
BITMAP
0c
18
30
30
60
60
c0
c0
c0
c0
c0
c0
c0
c0
c0
c0
60
60
30
30
18
0c
ENDCHAR
STARTCHAR 41
ENCODING 41
SWIDTH 539 0
DWIDTH 14 0
BBX 6 22 4 -3
BITMAP
c0
60
30
30
18
18
0c
0c
0c
0c
0c
0c
0c
0c
0c
0c
18
18
30
30
60
c0
ENDCHAR
STARTCHAR 42
ENCODING 42
SWIDTH 539 0
DWIDTH 14 0
BBX 12 12 1 2
BITMAP
0600
0600
6660
f6f0
7fe0
0f00
0f00
7fe0
f6f0
6660
0600
0600
ENDCHAR
STARTCHAR 43
ENCODING 43
SWIDTH 539 0
DWIDTH 14 0
BBX 12 12 1 2
BITMAP
0600
0600
0600
0600
0600
fff0
fff0
0600
0600
0600
0600
0600
ENDCHAR
STARTCHAR 44
ENCODING 44
SWIDTH 539 0
DWIDTH 14 0
BBX 5 7 4 -3
BITMAP
30
78
78
38
30
60
c0
ENDCHAR
STARTCHAR 45
ENCODING 45
SWIDTH 539 0
DWIDTH 14 0
BBX 12 2 1 7
BITMAP
fff0
fff0
ENDCHAR
STARTCHAR 46
ENCODING 46
SWIDTH 539 0
DWIDTH 14 0
BBX 4 4 5 0
BITMAP
60
f0
f0
60
ENDCHAR
STARTCHAR 47
ENCODING 47
SWIDTH 539 0
DWIDTH 14 0
BBX 12 22 1 -3
BITMAP
0030
0030
0060
0060
00c0
00c0
0180
0180
0300
0300
0600
0600
0c00
0c00
1800
1800
3000
3000
6000
6000
c000
c000
ENDCHAR
STARTCHAR 48
ENCODING 48
SWIDTH 539 0
DWIDTH 14 0
BBX 10 16 2 0
BITMAP
1e00
3300
6180
6180
c0c0
c0c0
c0c0
c0c0
c0c0
c0c0
c0c0
c0c0
6180
6180
3300
1e00
ENDCHAR
STARTCHAR 49
ENCODING 49
SWIDTH 539 0
DWIDTH 14 0
BBX 8 16 2 0
BITMAP
1c
3c
6c
cc
0c
0c
0c
0c
0c
0c
0c
0c
0c
0c
0c
7f
ENDCHAR
STARTCHAR 50
ENCODING 50
SWIDTH 539 0
DWIDTH 14 0
BBX 10 16 2 0
BITMAP
3f00
6180
c0c0
c0c0
00c0
00c0
0180
0300
0600
0c00
1800
3000
6000
c000
c0c0
ffc0
ENDCHAR
STARTCHAR 51
ENCODING 51
SWIDTH 539 0
DWIDTH 14 0
BBX 10 16 2 0
BITMAP
3e00
6300
c180
c180
0180
0180
0300
1e00
0380
0180
00c0
00c0
c0c0
c180
6380
3e00
ENDCHAR
STARTCHAR 52
ENCODING 52
SWIDTH 539 0
DWIDTH 14 0
BBX 11 16 1 0
BITMAP
0300
0300
0600
0c00
0c00
1800
1980
3180
6180
6180
c180
ffe0
0180
0180
0180
0180
ENDCHAR
STARTCHAR 53
ENCODING 53
SWIDTH 539 0
DWIDTH 14 0
BBX 11 16 1 0
BITMAP
7fc0
6000
6000
6000
6000
6000
7f00
0180
00c0
0060
0060
0060
0060
c0c0
e180
3f00
ENDCHAR
STARTCHAR 54
ENCODING 54
SWIDTH 539 0
DWIDTH 14 0
BBX 11 16 1 0
BITMAP
0380
0e00
1800
3000
6000
4000
df00
f180
e0c0
c060
c060
c060
c060
60c0
3180
1f00
ENDCHAR
STARTCHAR 55
ENCODING 55
SWIDTH 539 0
DWIDTH 14 0
BBX 10 16 2 0
BITMAP
ffc0
c0c0
00c0
0180
0180
0300
0300
0600
0600
0600
0c00
0c00
1800
1800
3000
3000
ENDCHAR
STARTCHAR 56
ENCODING 56
SWIDTH 539 0
DWIDTH 14 0
BBX 11 16 1 0
BITMAP
1f00
3180
60c0
60c0
60c0
60c0
3180
1f00
71c0
60c0
c060
c060
c060
60c0
71c0
1f00
ENDCHAR
STARTCHAR 57
ENCODING 57
SWIDTH 539 0
DWIDTH 14 0
BBX 11 16 1 0
BITMAP
1f00
3180
60c0
c060
c060
c060
c060
60e0
31e0
1f60
0040
00c0
0180
0300
0e00
3800
ENDCHAR
STARTCHAR 58
ENCODING 58
SWIDTH 539 0
DWIDTH 14 0
BBX 4 11 5 0
BITMAP
60
f0
f0
60
00
00
00
60
f0
f0
60
ENDCHAR
STARTCHAR 59
ENCODING 59
SWIDTH 539 0
DWIDTH 14 0
BBX 5 14 4 -3
BITMAP
30
78
78
30
00
00
00
30
78
78
38
30
60
c0
ENDCHAR
STARTCHAR 60
ENCODING 60
SWIDTH 539 0
DWIDTH 14 0
BBX 12 12 1 2
BITMAP
0030
00f0
03c0
0f00
3c00
f000
f000
3c00
0f00
03c0
00f0
0030
ENDCHAR
STARTCHAR 61
ENCODING 61
SWIDTH 539 0
DWIDTH 14 0
BBX 12 6 1 5
BITMAP
fff0
fff0
0000
0000
fff0
fff0
ENDCHAR
STARTCHAR 62
ENCODING 62
SWIDTH 539 0
DWIDTH 14 0
BBX 12 12 1 2
BITMAP
c000
f000
3c00
0f00
03c0
00f0
00f0
03c0
0f00
3c00
f000
c000
ENDCHAR
STARTCHAR 63
ENCODING 63
SWIDTH 539 0
DWIDTH 14 0
BBX 10 18 2 -1
BITMAP
3f00
7380
e1c0
e1c0
61c0
01c0
0380
0700
0e00
1c00
1800
1800
0000
0000
1800
3c00
3c00
1800
ENDCHAR
STARTCHAR 64
ENCODING 64
SWIDTH 539 0
DWIDTH 14 0
BBX 12 18 1 -1
BITMAP
0f00
39c0
6060
6060
c060
c3e0
c660
cc60
cc60
cc60
cc60
c6e0
c3b0
c000
6000
6020
38e0
0f80
ENDCHAR
STARTCHAR 65
ENCODING 65
SWIDTH 539 0
DWIDTH 14 0
BBX 13 16 1 0
BITMAP
0200
0200
0700
0700
0d80
0d80
0d80
18c0
18c0
18c0
3fe0
3060
3060
6030
6030
f078
ENDCHAR
STARTCHAR 66
ENCODING 66
SWIDTH 539 0
DWIDTH 14 0
BBX 11 16 2 0
BITMAP
ff00
6180
60c0
60c0
60c0
60c0
6180
7f00
6180
60c0
6060
6060
6060
6060
60c0
ff80
ENDCHAR
STARTCHAR 67
ENCODING 67
SWIDTH 539 0
DWIDTH 14 0
BBX 11 16 1 0
BITMAP
0fa0
39e0
6060
6060
c020
c000
c000
c000
c000
c000
c000
c000
6020
6060
39c0
0f00
ENDCHAR
STARTCHAR 68
ENCODING 68
SWIDTH 539 0
DWIDTH 14 0
BBX 12 16 1 0
BITMAP
fe00
6380
60c0
6060
6060
6030
6030
6030
6030
6030
6030
6060
6060
60c0
6380
fe00
ENDCHAR
STARTCHAR 69
ENCODING 69
SWIDTH 539 0
DWIDTH 14 0
BBX 11 16 1 0
BITMAP
ffe0
6060
6020
6000
6000
6000
6200
7e00
6200
6000
6000
6000
6000
6020
6060
ffe0
ENDCHAR
STARTCHAR 70
ENCODING 70
SWIDTH 539 0
DWIDTH 14 0
BBX 11 16 1 0
BITMAP
ffe0
6060
6020
6000
6000
6000
6200
7e00
6200
6000
6000
6000
6000
6000
6000
f800
ENDCHAR
STARTCHAR 71
ENCODING 71
SWIDTH 539 0
DWIDTH 14 0
BBX 12 16 1 0
BITMAP
0fa0
39e0
6060
6060
c020
c000
c000
c000
c000
c3f0
c060
c060
6060
6060
38e0
0f80
ENDCHAR
STARTCHAR 72
ENCODING 72
SWIDTH 539 0
DWIDTH 14 0
BBX 12 16 1 0
BITMAP
f0f0
6060
6060
6060
6060
6060
6060
7fe0
6060
6060
6060
6060
6060
6060
6060
f0f0
ENDCHAR
STARTCHAR 73
ENCODING 73
SWIDTH 539 0
DWIDTH 14 0
BBX 8 16 3 0
BITMAP
ff
18
18
18
18
18
18
18
18
18
18
18
18
18
18
ff
ENDCHAR
STARTCHAR 74
ENCODING 74
SWIDTH 539 0
DWIDTH 14 0
BBX 11 16 1 0
BITMAP
0fe0
0180
0180
0180
0180
0180
0180
0180
0180
0180
0180
0180
c180
c180
6300
3e00
ENDCHAR
STARTCHAR 75
ENCODING 75
SWIDTH 539 0
DWIDTH 14 0
BBX 12 16 1 0
BITMAP
f0f0
6060
60c0
6180
6300
6600
6c00
7c00
7600
6600
6300
6180
6180
60c0
6060
f0f0
ENDCHAR
STARTCHAR 76
ENCODING 76
SWIDTH 539 0
DWIDTH 14 0
BBX 11 16 1 0
BITMAP
fc00
3000
3000
3000
3000
3000
3000
3000
3000
3000
3000
3000
3000
3020
3060
ffe0
ENDCHAR
STARTCHAR 77
ENCODING 77
SWIDTH 539 0
DWIDTH 14 0
BBX 12 16 1 0
BITMAP
e070
6060
70e0
70e0
79e0
6960
6f60
6660
6660
6060
6060
6060
6060
6060
6060
f0f0
ENDCHAR
STARTCHAR 78
ENCODING 78
SWIDTH 539 0
DWIDTH 14 0
BBX 12 16 1 0
BITMAP
e0f0
7060
7060
7860
6860
6c60
6460
6660
6260
6360
6160
61e0
60e0
60e0
6060
f060
ENDCHAR
STARTCHAR 79
ENCODING 79
SWIDTH 539 0
DWIDTH 14 0
BBX 12 16 1 0
BITMAP
0f00
39c0
6060
6060
c030
c030
c030
c030
c030
c030
c030
c030
6060
6060
39c0
0f00
ENDCHAR
STARTCHAR 80
ENCODING 80
SWIDTH 539 0
DWIDTH 14 0
BBX 10 16 2 0
BITMAP
ff00
6180
60c0
60c0
60c0
60c0
60c0
6180
7f00
6000
6000
6000
6000
6000
6000
f800
ENDCHAR
STARTCHAR 81
ENCODING 81
SWIDTH 539 0
DWIDTH 14 0
BBX 12 21 1 -5
BITMAP
0f00
39c0
6060
6060
c030
c030
c030
c030
c030
c030
c030
c030
6060
6060
39c0
0f00
0300
0180
00c0
0070
0020
ENDCHAR
STARTCHAR 82
ENCODING 82
SWIDTH 539 0
DWIDTH 14 0
BBX 11 16 2 0
BITMAP
ff00
6180
60c0
60c0
60c0
60c0
60c0
6180
7f00
6600
6300
6300
6180
6180
60c0
f8e0
ENDCHAR
STARTCHAR 83
ENCODING 83
SWIDTH 539 0
DWIDTH 14 0
BBX 10 16 2 0
BITMAP
3f40
61c0
c0c0
c040
c000
6000
7800
1e00
0780
0180
00c0
80c0
80c0
c0c0
e180
bf00
ENDCHAR
STARTCHAR 84
ENCODING 84
SWIDTH 539 0
DWIDTH 14 0
BBX 12 16 1 0
BITMAP
fff0
c630
8610
8610
0600
0600
0600
0600
0600
0600
0600
0600
0600
0600
0600
1f80
ENDCHAR
STARTCHAR 85
ENCODING 85
SWIDTH 539 0
DWIDTH 14 0
BBX 12 16 1 0
BITMAP
f0f0
6060
6060
6060
6060
6060
6060
6060
6060
6060
6060
6060
6060
6060
30c0
1f80
ENDCHAR
STARTCHAR 86
ENCODING 86
SWIDTH 539 0
DWIDTH 14 0
BBX 13 16 1 0
BITMAP
f078
6030
6030
2020
3060
3060
1040
18c0
18c0
0880
0d80
0d80
0500
0700
0700
0200
ENDCHAR
STARTCHAR 87
ENCODING 87
SWIDTH 539 0
DWIDTH 14 0
BBX 13 16 1 0
BITMAP
f078
6030
6030
6030
6030
6230
2220
3760
3760
3560
3560
3de0
18c0
18c0
18c0
18c0
ENDCHAR
STARTCHAR 88
ENCODING 88
SWIDTH 539 0
DWIDTH 14 0
BBX 13 16 1 0
BITMAP
f078
6030
3060
18c0
18c0
0d80
0700
0200
0700
0d80
18c0
18c0
3060
3060
6030
f078
ENDCHAR
STARTCHAR 89
ENCODING 89
SWIDTH 539 0
DWIDTH 14 0
BBX 12 16 1 0
BITMAP
f0f0
6060
6060
30c0
30c0
1980
1980
0f00
0f00
0600
0600
0600
0600
0600
0600
1f80
ENDCHAR
STARTCHAR 90
ENCODING 90
SWIDTH 539 0
DWIDTH 14 0
BBX 10 16 2 0
BITMAP
ffc0
c0c0
8180
0180
0300
0600
0600
0c00
0c00
1800
1800
3000
6000
6040
c0c0
ffc0
ENDCHAR
STARTCHAR 91
ENCODING 91
SWIDTH 539 0
DWIDTH 14 0
BBX 5 22 5 -3
BITMAP
f8
c0
c0
c0
c0
c0
c0
c0
c0
c0
c0
c0
c0
c0
c0
c0
c0
c0
c0
c0
c0
f8
ENDCHAR
STARTCHAR 92
ENCODING 92
SWIDTH 539 0
DWIDTH 14 0
BBX 12 22 1 -3
BITMAP
c000
c000
6000
6000
3000
3000
1800
1800
0c00
0c00
0600
0600
0300
0300
0180
0180
00c0
00c0
0060
0060
0030
0030
ENDCHAR
STARTCHAR 93
ENCODING 93
SWIDTH 539 0
DWIDTH 14 0
BBX 5 22 4 -3
BITMAP
f8
18
18
18
18
18
18
18
18
18
18
18
18
18
18
18
18
18
18
18
18
f8
ENDCHAR
STARTCHAR 94
ENCODING 94
SWIDTH 539 0
DWIDTH 14 0
BBX 10 6 2 10
BITMAP
0c00
1e00
3300
6180
c0c0
8040
ENDCHAR
STARTCHAR 95
ENCODING 95
SWIDTH 539 0
DWIDTH 14 0
BBX 14 2 0 -2
BITMAP
fffc
fffc
ENDCHAR
STARTCHAR 96
ENCODING 96
SWIDTH 539 0
DWIDTH 14 0
BBX 5 7 4 10
BITMAP
18
30
60
e0
f0
f0
60
ENDCHAR
STARTCHAR 97
ENCODING 97
SWIDTH 539 0
DWIDTH 14 0
BBX 12 10 1 0
BITMAP
1f80
71c0
60c0
00c0
1fc0
70c0
c0c0
c1c0
e6f0
7c60
ENDCHAR
STARTCHAR 98
ENCODING 98
SWIDTH 539 0
DWIDTH 14 0
BBX 11 16 1 0
BITMAP
6000
e000
6000
6000
6000
6000
6f00
71c0
60c0
6060
6060
6060
6060
60c0
71c0
6f00
ENDCHAR
STARTCHAR 99
ENCODING 99
SWIDTH 539 0
DWIDTH 14 0
BBX 10 10 1 0
BITMAP
1fc0
71c0
60c0
c000
c000
c000
c000
60c0
71c0
1f00
ENDCHAR
STARTCHAR 100
ENCODING 100
SWIDTH 539 0
DWIDTH 14 0
BBX 12 16 1 0
BITMAP
00c0
01c0
00c0
00c0
00c0
00c0
1ec0
71c0
60c0
c0c0
c0c0
c0c0
c0c0
60c0
71f0
1e60
ENDCHAR
STARTCHAR 101
ENCODING 101
SWIDTH 539 0
DWIDTH 14 0
BBX 11 10 1 0
BITMAP
1f00
71c0
60c0
c060
ffe0
c000
c000
6060
70e0
1f80
ENDCHAR
STARTCHAR 102
ENCODING 102
SWIDTH 539 0
DWIDTH 14 0
BBX 10 16 2 0
BITMAP
07c0
0cc0
1800
1800
1800
1800
7f80
1800
1800
1800
1800
1800
1800
1800
1800
ff80
ENDCHAR
STARTCHAR 103
ENCODING 103
SWIDTH 539 0
DWIDTH 14 0
BBX 11 15 1 -5
BITMAP
3e00
63e0
c180
c180
c180
6300
3e00
6000
3f80
60c0
c060
c060
c060
71c0
1f00
ENDCHAR
STARTCHAR 104
ENCODING 104
SWIDTH 539 0
DWIDTH 14 0
BBX 11 16 1 0
BITMAP
6000
e000
6000
6000
6000
6000
6f80
71c0
60c0
60c0
60c0
60c0
60c0
60c0
60c0
f1e0
ENDCHAR
STARTCHAR 105
ENCODING 105
SWIDTH 539 0
DWIDTH 14 0
BBX 8 15 3 0
BITMAP
18
3c
18
00
00
18
78
18
18
18
18
18
18
18
ff
ENDCHAR
STARTCHAR 106
ENCODING 106
SWIDTH 539 0
DWIDTH 14 0
BBX 9 20 1 -5
BITMAP
0300
0780
0300
0000
0000
0180
0f80
0180
0180
0180
0180
0180
0180
0180
0180
0180
0180
c180
e300
3e00
ENDCHAR
STARTCHAR 107
ENCODING 107
SWIDTH 539 0
DWIDTH 14 0
BBX 12 16 1 0
BITMAP
6000
e000
6000
6000
6000
6000
63e0
6180
6300
6600
6c00
7e00
6300
6180
60d0
f860
ENDCHAR
STARTCHAR 108
ENCODING 108
SWIDTH 539 0
DWIDTH 14 0
BBX 8 16 3 0
BITMAP
18
f8
18
18
18
18
18
18
18
18
18
18
18
18
18
ff
ENDCHAR
STARTCHAR 109
ENCODING 109
SWIDTH 539 0
DWIDTH 14 0
BBX 14 10 0 0
BITMAP
6ef0
f398
6318
6318
6318
6318
6318
6318
6318
f7bc
ENDCHAR
STARTCHAR 110
ENCODING 110
SWIDTH 539 0
DWIDTH 14 0
BBX 11 10 1 0
BITMAP
6f80
f1c0
60c0
60c0
60c0
60c0
60c0
60c0
60c0
f1e0
ENDCHAR
STARTCHAR 111
ENCODING 111
SWIDTH 539 0
DWIDTH 14 0
BBX 11 10 1 0
BITMAP
1f00
71c0
60c0
c060
c060
c060
c060
60c0
71c0
1f00
ENDCHAR
STARTCHAR 112
ENCODING 112
SWIDTH 539 0
DWIDTH 14 0
BBX 11 15 1 -5
BITMAP
6f00
f1c0
60c0
6060
6060
6060
6060
60c0
71c0
6f00
6000
6000
6000
6000
f800
ENDCHAR
STARTCHAR 113
ENCODING 113
SWIDTH 539 0
DWIDTH 14 0
BBX 11 15 1 -5
BITMAP
1e40
71c0
60c0
c0c0
c0c0
c0c0
c0c0
60c0
71c0
1ec0
00c0
00c0
00c0
00c0
03e0
ENDCHAR
STARTCHAR 114
ENCODING 114
SWIDTH 539 0
DWIDTH 14 0
BBX 10 10 2 0
BITMAP
3380
f5c0
3980
3000
3000
3000
3000
3000
3000
fe00
ENDCHAR
STARTCHAR 115
ENCODING 115
SWIDTH 539 0
DWIDTH 14 0
BBX 10 10 2 0
BITMAP
3f00
e3c0
c0c0
e000
7c00
0f80
01c0
c0c0
f1c0
3f00
ENDCHAR
STARTCHAR 116
ENCODING 116
SWIDTH 539 0
DWIDTH 14 0
BBX 11 14 1 0
BITMAP
1800
1800
1800
1800
ffc0
1800
1800
1800
1800
1800
1800
1860
1cc0
0f80
ENDCHAR
STARTCHAR 117
ENCODING 117
SWIDTH 539 0
DWIDTH 14 0
BBX 12 10 1 0
BITMAP
60c0
e1c0
60c0
60c0
60c0
60c0
60c0
60c0
71f0
3e60
ENDCHAR
STARTCHAR 118
ENCODING 118
SWIDTH 539 0
DWIDTH 14 0
BBX 11 10 1 0
BITMAP
f1e0
60c0
60c0
3180
3180
1b00
1b00
0e00
0e00
0400
ENDCHAR
STARTCHAR 119
ENCODING 119
SWIDTH 539 0
DWIDTH 14 0
BBX 13 10 0 0
BITMAP
f078
6030
6230
2220
3760
3760
1540
1dc0
1dc0
0880
ENDCHAR
STARTCHAR 120
ENCODING 120
SWIDTH 539 0
DWIDTH 14 0
BBX 11 10 1 0
BITMAP
f1e0
60c0
3180
1b00
0e00
0e00
1b00
3180
60c0
f1e0
ENDCHAR
STARTCHAR 121
ENCODING 121
SWIDTH 539 0
DWIDTH 14 0
BBX 11 15 1 -5
BITMAP
f1e0
60c0
60c0
3180
3180
1980
1b00
0b00
0e00
0600
0600
0c00
cc00
d800
7000
ENDCHAR
STARTCHAR 122
ENCODING 122
SWIDTH 539 0
DWIDTH 14 0
BBX 9 10 2 0
BITMAP
ff80
c180
8300
0600
0c00
1800
3000
6080
c180
ff80
ENDCHAR
STARTCHAR 123
ENCODING 123
SWIDTH 539 0
DWIDTH 14 0
BBX 8 22 3 -3
BITMAP
07
0c
18
18
18
18
18
18
18
30
e0
30
18
18
18
18
18
18
18
18
0c
07
ENDCHAR
STARTCHAR 124
ENCODING 124
SWIDTH 539 0
DWIDTH 14 0
BBX 2 20 6 -2
BITMAP
c0
c0
c0
c0
c0
c0
c0
c0
c0
c0
c0
c0
c0
c0
c0
c0
c0
c0
c0
c0
ENDCHAR
STARTCHAR 125
ENCODING 125
SWIDTH 539 0
DWIDTH 14 0
BBX 8 22 3 -3
BITMAP
e0
30
18
18
18
18
18
18
18
0c
07
0c
18
18
18
18
18
18
18
18
30
e0
ENDCHAR
STARTCHAR 126
ENCODING 126
SWIDTH 539 0
DWIDTH 14 0
BBX 12 4 1 8
BITMAP
3c30
7e70
e7e0
c3c0
ENDCHAR
STARTCHAR 127
ENCODING 127
SWIDTH 539 0
DWIDTH 14 0
BBX 1 1 0 -6
BITMAP
00
ENDCHAR
STARTCHAR 160
ENCODING 160
SWIDTH 539 0
DWIDTH 14 0
BBX 1 1 0 -6
BITMAP
00
ENDCHAR
STARTCHAR 161
ENCODING 161
SWIDTH 539 0
DWIDTH 14 0
BBX 13 19 1 -3
BITMAP
0200
0200
0700
0700
0d80
0d80
0d80
18c0
18c0
18c0
3fe0
3060
3060
6030
6030
f078
00c0
0188
00f0
ENDCHAR
STARTCHAR 162
ENCODING 162
SWIDTH 539 0
DWIDTH 14 0
BBX 9 4 2 12
BITMAP
c180
c180
6300
3e00
ENDCHAR
STARTCHAR 163
ENCODING 163
SWIDTH 539 0
DWIDTH 14 0
BBX 11 16 1 0
BITMAP
fc00
3000
3000
3000
3000
3600
3c00
3800
7000
f000
3000
3000
3000
3020
3060
ffe0
ENDCHAR
STARTCHAR 164
ENCODING 164
SWIDTH 539 0
DWIDTH 14 0
BBX 12 12 1 3
BITMAP
4020
ef70
7fe0
30c0
6060
6060
6060
6060
30c0
7fe0
ef70
4020
ENDCHAR
STARTCHAR 165
ENCODING 165
SWIDTH 539 0
DWIDTH 14 0
BBX 11 18 1 0
BITMAP
00c0
01e0
fde0
30e0
30c0
3180
3300
3000
3000
3000
3000
3000
3000
3000
3000
3020
3060
ffe0
ENDCHAR
STARTCHAR 166
ENCODING 166
SWIDTH 539 0
DWIDTH 14 0
BBX 10 20 2 0
BITMAP
01c0
0380
0600
0000
3f40
61c0
c0c0
c040
c000
6000
7800
1e00
0780
0180
00c0
80c0
80c0
c0c0
e180
bf00
ENDCHAR
STARTCHAR 167
ENCODING 167
SWIDTH 539 0
DWIDTH 14 0
BBX 10 19 2 -1
BITMAP
1e00
3380
6180
6180
7000
3800
5c00
c700
c380
e1c0
70c0
38c0
0e80
0700
0380
6180
6180
7300
1e00
ENDCHAR
STARTCHAR 168
ENCODING 168
SWIDTH 539 0
DWIDTH 14 0
BBX 10 3 2 12
BITMAP
6180
f3c0
6180
ENDCHAR
STARTCHAR 169
ENCODING 169
SWIDTH 539 0
DWIDTH 14 0
BBX 10 20 2 0
BITMAP
3180
1b00
0e00
0000
3f40
61c0
c0c0
c040
c000
6000
7800
1e00
0780
0180
00c0
80c0
80c0
c0c0
e180
bf00
ENDCHAR
STARTCHAR 170
ENCODING 170
SWIDTH 539 0
DWIDTH 14 0
BBX 10 21 2 -5
BITMAP
3f40
61c0
c0c0
c040
c000
6000
7800
1e00
0780
0180
00c0
80c0
80c0
c0c0
e180
bf00
1800
1c00
0c00
1800
3000
ENDCHAR
STARTCHAR 171
ENCODING 171
SWIDTH 539 0
DWIDTH 14 0
BBX 12 20 1 0
BITMAP
30c0
1980
0f00
0000
fff0
c630
8610
8610
0600
0600
0600
0600
0600
0600
0600
0600
0600
0600
0600
1f80
ENDCHAR
STARTCHAR 172
ENCODING 172
SWIDTH 539 0
DWIDTH 14 0
BBX 10 20 2 0
BITMAP
0380
0700
0c00
0000
ffc0
c0c0
8180
0180
0300
0600
0600
0c00
0c00
1800
1800
3000
6000
6040
c0c0
ffc0
ENDCHAR
STARTCHAR 173
ENCODING 173
SWIDTH 539 0
DWIDTH 14 0
BBX 8 2 2 7
BITMAP
ff
ff
ENDCHAR
STARTCHAR 174
ENCODING 174
SWIDTH 539 0
DWIDTH 14 0
BBX 10 20 2 0
BITMAP
3180
1b00
0e00
0000
ffc0
c0c0
8180
0180
0300
0600
0600
0c00
0c00
1800
1800
3000
6000
6040
c0c0
ffc0
ENDCHAR
STARTCHAR 175
ENCODING 175
SWIDTH 539 0
DWIDTH 14 0
BBX 10 20 2 0
BITMAP
0c00
1e00
0c00
0000
ffc0
c0c0
8180
0180
0300
0600
0600
0c00
0c00
1800
1800
3000
6000
6040
c0c0
ffc0
ENDCHAR
STARTCHAR 176
ENCODING 176
SWIDTH 539 0
DWIDTH 14 0
BBX 7 6 3 10
BITMAP
38
6c
c6
c6
6c
38
ENDCHAR
STARTCHAR 177
ENCODING 177
SWIDTH 539 0
DWIDTH 14 0
BBX 13 13 1 -3
BITMAP
1f80
71c0
60c0
00c0
1fc0
70c0
c0c0
c1c0
e6f0
7c60
00c0
00c8
0070
ENDCHAR
STARTCHAR 178
ENCODING 178
SWIDTH 539 0
DWIDTH 14 0
BBX 6 4 6 -3
BITMAP
60
c0
c4
78
ENDCHAR
STARTCHAR 179
ENCODING 179
SWIDTH 539 0
DWIDTH 14 0
BBX 8 16 3 0
BITMAP
18
f8
18
18
18
1b
1e
1c
38
78
d8
18
18
18
18
ff
ENDCHAR
STARTCHAR 180
ENCODING 180
SWIDTH 539 0
DWIDTH 14 0
BBX 5 4 5 11
BITMAP
18
38
60
c0
ENDCHAR
STARTCHAR 181
ENCODING 181
SWIDTH 539 0
DWIDTH 14 0
BBX 10 18 2 0
BITMAP
0080
01c0
19c0
f8c0
1980
1b00
1800
1800
1800
1800
1800
1800
1800
1800
1800
1800
1800
ff00
ENDCHAR
STARTCHAR 182
ENCODING 182
SWIDTH 539 0
DWIDTH 14 0
BBX 10 15 2 0
BITMAP
0380
0700
0c00
0000
0000
3f00
e3c0
c0c0
e000
7c00
0f80
01c0
c0c0
f1c0
3f00
ENDCHAR
STARTCHAR 183
ENCODING 183
SWIDTH 539 0
DWIDTH 14 0
BBX 7 4 3 11
BITMAP
10
38
6c
c6
ENDCHAR
STARTCHAR 184
ENCODING 184
SWIDTH 539 0
DWIDTH 14 0
BBX 7 4 3 -5
BITMAP
0c
06
c6
7c
ENDCHAR
STARTCHAR 185
ENCODING 185
SWIDTH 539 0
DWIDTH 14 0
BBX 10 16 2 0
BITMAP
3180
1b00
0e00
0400
0000
0000
3f00
e3c0
c0c0
e000
7c00
0f80
01c0
c0c0
f1c0
3f00
ENDCHAR
STARTCHAR 186
ENCODING 186
SWIDTH 539 0
DWIDTH 14 0
BBX 10 15 2 -5
BITMAP
3f00
e3c0
c0c0
e000
7c00
0f80
01c0
c0c0
f1c0
3f00
0c00
0e00
0600
0c00
1800
ENDCHAR
STARTCHAR 187
ENCODING 187
SWIDTH 539 0
DWIDTH 14 0
BBX 12 16 0 0
BITMAP
0020
0070
1870
1830
1860
18c0
ff00
1800
1800
1800
1800
1800
1800
1860
1cc0
0f80
ENDCHAR
STARTCHAR 188
ENCODING 188
SWIDTH 539 0
DWIDTH 14 0
BBX 9 16 2 0
BITMAP
0300
0700
0c00
1800
0000
0000
ff80
c180
8300
0600
0c00
1800
3000
6080
c180
ff80
ENDCHAR
STARTCHAR 189
ENCODING 189
SWIDTH 539 0
DWIDTH 14 0
BBX 11 4 2 11
BITMAP
1ce0
39c0
6300
c600
ENDCHAR
STARTCHAR 190
ENCODING 190
SWIDTH 539 0
DWIDTH 14 0
BBX 9 16 2 0
BITMAP
6300
3600
1c00
0800
0000
0000
ff80
c180
8300
0600
0c00
1800
3000
6080
c180
ff80
ENDCHAR
STARTCHAR 191
ENCODING 191
SWIDTH 539 0
DWIDTH 14 0
BBX 9 15 2 0
BITMAP
0c00
1e00
0c00
0000
0000
ff80
c180
8300
0600
0c00
1800
3000
6080
c180
ff80
ENDCHAR
STARTCHAR 192
ENCODING 192
SWIDTH 539 0
DWIDTH 14 0
BBX 11 20 2 0
BITMAP
01c0
0380
0600
0000
ff00
6180
60c0
60c0
60c0
60c0
60c0
6180
7f00
6600
6300
6300
6180
6180
60c0
f8e0
ENDCHAR
STARTCHAR 193
ENCODING 193
SWIDTH 539 0
DWIDTH 14 0
BBX 13 20 1 0
BITMAP
00e0
01c0
0300
0000
0200
0200
0700
0700
0d80
0d80
0d80
18c0
18c0
18c0
3fe0
3060
3060
6030
6030
f078
ENDCHAR
STARTCHAR 194
ENCODING 194
SWIDTH 539 0
DWIDTH 14 0
BBX 13 20 1 0
BITMAP
0200
0700
0d80
18c0
0200
0200
0700
0700
0d80
0d80
0d80
18c0
18c0
18c0
3fe0
3060
3060
6030
6030
f078
ENDCHAR
STARTCHAR 195
ENCODING 195
SWIDTH 539 0
DWIDTH 14 0
BBX 13 20 1 0
BITMAP
3060
3060
18c0
0f80
0000
0200
0200
0700
0700
0d80
0d80
0880
18c0
18c0
3fe0
3060
3060
6030
6030
f078
ENDCHAR
STARTCHAR 196
ENCODING 196
SWIDTH 539 0
DWIDTH 14 0
BBX 13 20 1 0
BITMAP
1860
3cf0
1860
0000
0200
0200
0700
0700
0d80
0d80
0d80
18c0
18c0
18c0
3fe0
3060
3060
6030
6030
f078
ENDCHAR
STARTCHAR 197
ENCODING 197
SWIDTH 539 0
DWIDTH 14 0
BBX 11 20 1 0
BITMAP
0700
0e00
1800
0000
fc00
3000
3000
3000
3000
3000
3000
3000
3000
3000
3000
3000
3000
3020
3060
ffe0
ENDCHAR
STARTCHAR 198
ENCODING 198
SWIDTH 539 0
DWIDTH 14 0
BBX 11 20 1 0
BITMAP
00e0
01c0
0300
0000
0fa0
39e0
6060
6060
c020
c000
c000
c000
c000
c000
c000
c000
6020
6060
39c0
0f00
ENDCHAR
STARTCHAR 199
ENCODING 199
SWIDTH 539 0
DWIDTH 14 0
BBX 11 21 1 -5
BITMAP
0fa0
39e0
6060
6060
c020
c000
c000
c000
c000
c000
c000
c000
6020
6060
39c0
0f00
0200
0300
0180
3180
1f00
ENDCHAR
STARTCHAR 200
ENCODING 200
SWIDTH 539 0
DWIDTH 14 0
BBX 11 20 1 0
BITMAP
18c0
0d80
0700
0000
0fa0
38e0
6060
6020
c020
c000
c000
c000
c000
c000
c000
c000
6020
6060
39c0
0f00
ENDCHAR
STARTCHAR 201
ENCODING 201
SWIDTH 539 0
DWIDTH 14 0
BBX 11 20 1 0
BITMAP
01c0
0380
0600
0000
ffe0
6060
6020
6000
6000
6000
6200
7e00
6200
6000
6000
6000
6000
6020
6060
ffe0
ENDCHAR
STARTCHAR 202
ENCODING 202
SWIDTH 539 0
DWIDTH 14 0
BBX 12 19 1 -3
BITMAP
ffe0
6060
6020
6000
6000
6000
6200
7e00
6200
6000
6000
6000
6000
6020
6060
ffe0
0180
0310
01e0
ENDCHAR
STARTCHAR 203
ENCODING 203
SWIDTH 539 0
DWIDTH 14 0
BBX 11 20 1 0
BITMAP
30c0
79e0
30c0
0000
ffe0
6060
6020
6000
6000
6000
6200
7e00
6200
6000
6000
6000
6000
6020
6060
ffe0
ENDCHAR
STARTCHAR 204
ENCODING 204
SWIDTH 539 0
DWIDTH 14 0
BBX 11 20 1 0
BITMAP
3180
1b00
0e00
0000
ffe0
6060
6020
6000
6000
6000
6200
7e00
6200
6000
6000
6000
6000
6020
6060
ffe0
ENDCHAR
STARTCHAR 205
ENCODING 205
SWIDTH 539 0
DWIDTH 14 0
BBX 8 20 3 0
BITMAP
07
0e
18
00
ff
18
18
18
18
18
18
18
18
18
18
18
18
18
18
ff
ENDCHAR
STARTCHAR 206
ENCODING 206
SWIDTH 539 0
DWIDTH 14 0
BBX 8 20 3 0
BITMAP
18
3c
66
00
ff
18
18
18
18
18
18
18
18
18
18
18
18
18
18
ff
ENDCHAR
STARTCHAR 207
ENCODING 207
SWIDTH 539 0
DWIDTH 14 0
BBX 12 20 1 0
BITMAP
3180
1b00
0e00
0000
fe00
6380
60c0
6060
6060
6030
6030
6030
6030
6030
6030
6060
6060
60c0
6380
fe00
ENDCHAR
STARTCHAR 208
ENCODING 208
SWIDTH 539 0
DWIDTH 14 0
BBX 12 16 1 0
BITMAP
fe00
6380
60c0
6060
6060
6030
6030
fc30
6030
6030
6030
6060
6060
60c0
6380
fe00
ENDCHAR
STARTCHAR 209
ENCODING 209
SWIDTH 539 0
DWIDTH 14 0
BBX 12 20 1 0
BITMAP
01c0
0380
0600
0000
e0f0
7060
7060
7860
6860
6c60
6460
6660
6260
6360
6160
61e0
60e0
60e0
6060
f060
ENDCHAR
STARTCHAR 210
ENCODING 210
SWIDTH 539 0
DWIDTH 14 0
BBX 12 20 1 0
BITMAP
18c0
0d80
0700
0000
e0f0
7060
7060
7860
6860
6c60
6460
6660
6260
6360
6160
61e0
60e0
60e0
6060
f060
ENDCHAR
STARTCHAR 211
ENCODING 211
SWIDTH 539 0
DWIDTH 14 0
BBX 12 20 1 0
BITMAP
01c0
0380
0600
0000
0f00
39c0
6060
6060
c030
c030
c030
c030
c030
c030
c030
c030
6060
6060
39c0
0f00
ENDCHAR
STARTCHAR 212
ENCODING 212
SWIDTH 539 0
DWIDTH 14 0
BBX 12 20 1 0
BITMAP
0600
0f00
1980
0000
0f00
39c0
6060
6060
c030
c030
c030
c030
c030
c030
c030
c030
6060
6060
39c0
0f00
ENDCHAR
STARTCHAR 213
ENCODING 213
SWIDTH 539 0
DWIDTH 14 0
BBX 12 20 1 0
BITMAP
0e70
1ce0
3180
0000
0f00
39c0
6060
6060
c030
c030
c030
c030
c030
c030
c030
c030
6060
6060
39c0
0f00
ENDCHAR
STARTCHAR 214
ENCODING 214
SWIDTH 539 0
DWIDTH 14 0
BBX 12 20 1 0
BITMAP
30c0
79e0
30c0
0000
0f00
39c0
6060
6060
c030
c030
c030
c030
c030
c030
c030
c030
6060
6060
39c0
0f00
ENDCHAR
STARTCHAR 215
ENCODING 215
SWIDTH 539 0
DWIDTH 14 0
BBX 12 12 1 2
BITMAP
c030
e070
70e0
39c0
1f80
0f00
0f00
1f80
39c0
70e0
e070
c030
ENDCHAR
STARTCHAR 216
ENCODING 216
SWIDTH 539 0
DWIDTH 14 0
BBX 11 20 2 0
BITMAP
3180
1b00
0e00
0000
ff00
6180
60c0
60c0
60c0
60c0
60c0
6180
7f00
6600
6300
6300
6180
6180
60c0
f8e0
ENDCHAR
STARTCHAR 217
ENCODING 217
SWIDTH 539 0
DWIDTH 14 0
BBX 12 20 1 0
BITMAP
0f00
1980
1980
0f00
f0f0
6060
6060
6060
6060
6060
6060
6060
6060
6060
6060
6060
6060
6060
30c0
1f80
ENDCHAR
STARTCHAR 218
ENCODING 218
SWIDTH 539 0
DWIDTH 14 0
BBX 12 20 1 0
BITMAP
01c0
0380
0600
0000
f0f0
6060
6060
6060
6060
6060
6060
6060
6060
6060
6060
6060
6060
6060
30c0
1f80
ENDCHAR
STARTCHAR 219
ENCODING 219
SWIDTH 539 0
DWIDTH 14 0
BBX 12 20 1 0
BITMAP
0e70
1ce0
3180
0000
f0f0
6060
6060
6060
6060
6060
6060
6060
6060
6060
6060
6060
6060
6060
30c0
1f80
ENDCHAR
STARTCHAR 220
ENCODING 220
SWIDTH 539 0
DWIDTH 14 0
BBX 12 20 1 0
BITMAP
30c0
79e0
30c0
0000
f0f0
6060
6060
6060
6060
6060
6060
6060
6060
6060
6060
6060
6060
6060
30c0
1f80
ENDCHAR
STARTCHAR 221
ENCODING 221
SWIDTH 539 0
DWIDTH 14 0
BBX 12 20 1 0
BITMAP
01c0
0380
0600
0000
f0f0
6060
6060
30c0
30c0
1980
1980
0f00
0f00
0600
0600
0600
0600
0600
0600
1f80
ENDCHAR
STARTCHAR 222
ENCODING 222
SWIDTH 539 0
DWIDTH 14 0
BBX 12 21 1 -5
BITMAP
fff0
c630
8610
8610
0600
0600
0600
0600
0600
0600
0600
0600
0600
0600
0600
1f80
0600
0700
0300
0600
0c00
ENDCHAR
STARTCHAR 223
ENCODING 223
SWIDTH 539 0
DWIDTH 14 0
BBX 12 16 1 0
BITMAP
1f00
3180
60c0
60c0
60c0
60c0
6180
e7c0
6060
6030
6030
6030
6030
6630
6660
f3c0
ENDCHAR
STARTCHAR 224
ENCODING 224
SWIDTH 539 0
DWIDTH 14 0
BBX 10 16 2 0
BITMAP
0180
0380
0600
0c00
0000
0000
3380
f5c0
3980
3000
3000
3000
3000
3000
3000
fe00
ENDCHAR
STARTCHAR 225
ENCODING 225
SWIDTH 539 0
DWIDTH 14 0
BBX 12 16 1 0
BITMAP
00c0
01c0
0300
0600
0000
0000
1f80
71c0
60c0
00c0
1fc0
70c0
c0c0
c1c0
e6f0
7c60
ENDCHAR
STARTCHAR 226
ENCODING 226
SWIDTH 539 0
DWIDTH 14 0
BBX 12 16 1 0
BITMAP
0400
0e00
1b00
3180
0000
0000
1f80
71c0
60c0
00c0
1fc0
70c0
c0c0
c1c0
e6f0
7c60
ENDCHAR
STARTCHAR 227
ENCODING 227
SWIDTH 539 0
DWIDTH 14 0
BBX 12 16 1 0
BITMAP
60c0
60c0
3180
1f00
0000
0000
1f80
71c0
60c0
00c0
1fc0
70c0
c0c0
c1c0
e6f0
7c60
ENDCHAR
STARTCHAR 228
ENCODING 228
SWIDTH 539 0
DWIDTH 14 0
BBX 12 15 1 0
BITMAP
30c0
79e0
30c0
0000
0000
1f80
71c0
60c0
00c0
1fc0
70c0
c0c0
c1c0
e6f0
7c60
ENDCHAR
STARTCHAR 229
ENCODING 229
SWIDTH 539 0
DWIDTH 14 0
BBX 8 20 3 0
BITMAP
07
0e
18
00
18
f8
18
18
18
18
18
18
18
18
18
18
18
18
18
ff
ENDCHAR
STARTCHAR 230
ENCODING 230
SWIDTH 539 0
DWIDTH 14 0
BBX 10 16 1 0
BITMAP
00c0
01c0
0300
0600
0000
0000
1fc0
71c0
60c0
c000
c000
c000
c000
60c0
71c0
1f00
ENDCHAR
STARTCHAR 231
ENCODING 231
SWIDTH 539 0
DWIDTH 14 0
BBX 10 15 1 -5
BITMAP
1fc0
71c0
60c0
c000
c000
c000
c000
60c0
71c0
1f00
0400
0600
0300
6300
3e00
ENDCHAR
STARTCHAR 232
ENCODING 232
SWIDTH 539 0
DWIDTH 14 0
BBX 10 16 1 0
BITMAP
3180
1b00
0e00
0400
0000
0000
1fc0
71c0
60c0
c000
c000
c000
c000
60c0
71c0
1f00
ENDCHAR
STARTCHAR 233
ENCODING 233
SWIDTH 539 0
DWIDTH 14 0
BBX 11 16 1 0
BITMAP
00c0
01c0
0300
0600
0000
0000
1f00
71c0
60c0
c060
ffe0
c000
c000
6060
70e0
1f80
ENDCHAR
STARTCHAR 234
ENCODING 234
SWIDTH 539 0
DWIDTH 14 0
BBX 11 13 1 -3
BITMAP
1f00
71c0
60c0
c060
ffe0
c000
c000
6060
70e0
1f80
0300
0620
03c0
ENDCHAR
STARTCHAR 235
ENCODING 235
SWIDTH 539 0
DWIDTH 14 0
BBX 11 15 1 0
BITMAP
30c0
79e0
30c0
0000
0000
1f00
71c0
60c0
c060
ffe0
c000
c000
6060
70e0
1f80
ENDCHAR
STARTCHAR 236
ENCODING 236
SWIDTH 539 0
DWIDTH 14 0
BBX 11 16 1 0
BITMAP
3180
1b00
0e00
0400
0000
0000
1f00
71c0
60c0
c060
ffe0
c000
c000
6060
70e0
1f80
ENDCHAR
STARTCHAR 237
ENCODING 237
SWIDTH 539 0
DWIDTH 14 0
BBX 8 16 3 0
BITMAP
03
07
0c
18
00
00
18
78
18
18
18
18
18
18
18
ff
ENDCHAR
STARTCHAR 238
ENCODING 238
SWIDTH 539 0
DWIDTH 14 0
BBX 8 15 3 0
BITMAP
18
3c
66
00
00
18
78
18
18
18
18
18
18
18
ff
ENDCHAR
STARTCHAR 239
ENCODING 239
SWIDTH 539 0
DWIDTH 14 0
BBX 14 18 0 0
BITMAP
0008
001c
00dc
01cc
00d8
00d0
00c0
00c0
1ec0
71c0
60c0
c0c0
c0c0
c0c0
c0c0
60c0
71f0
1e60
ENDCHAR
STARTCHAR 240
ENCODING 240
SWIDTH 539 0
DWIDTH 14 0
BBX 12 16 1 0
BITMAP
00c0
01c0
00c0
00c0
07f0
00c0
1ec0
71c0
60c0
c0c0
c0c0
c0c0
c0c0
60c0
71f0
1e60
ENDCHAR
STARTCHAR 241
ENCODING 241
SWIDTH 539 0
DWIDTH 14 0
BBX 11 16 1 0
BITMAP
00c0
01c0
0300
0600
0000
0000
6f80
f1c0
60c0
60c0
60c0
60c0
60c0
60c0
60c0
f1e0
ENDCHAR
STARTCHAR 242
ENCODING 242
SWIDTH 539 0
DWIDTH 14 0
BBX 11 16 1 0
BITMAP
3180
1b00
0e00
0400
0000
0000
6f80
f1c0
60c0
60c0
60c0
60c0
60c0
60c0
60c0
f1e0
ENDCHAR
STARTCHAR 243
ENCODING 243
SWIDTH 539 0
DWIDTH 14 0
BBX 11 16 1 0
BITMAP
0180
0380
0600
0c00
0000
0000
1f00
71c0
60c0
c060
c060
c060
c060
60c0
71c0
1f00
ENDCHAR
STARTCHAR 244
ENCODING 244
SWIDTH 539 0
DWIDTH 14 0
BBX 11 16 1 0
BITMAP
0400
0e00
1b00
3180
0000
0000
1f00
71c0
60c0
c060
c060
c060
c060
60c0
71c0
1f00
ENDCHAR
STARTCHAR 245
ENCODING 245
SWIDTH 539 0
DWIDTH 14 0
BBX 11 16 1 0
BITMAP
0c60
1ce0
3180
6300
0000
0000
1f00
71c0
60c0
c060
c060
c060
c060
60c0
71c0
1f00
ENDCHAR
STARTCHAR 246
ENCODING 246
SWIDTH 539 0
DWIDTH 14 0
BBX 11 15 1 0
BITMAP
30c0
79e0
30c0
0000
0000
1f00
71c0
60c0
c060
c060
c060
c060
60c0
71c0
1f00
ENDCHAR
STARTCHAR 247
ENCODING 247
SWIDTH 539 0
DWIDTH 14 0
BBX 12 12 1 2
BITMAP
0600
0600
0600
0000
0000
fff0
fff0
0000
0000
0600
0600
0600
ENDCHAR
STARTCHAR 248
ENCODING 248
SWIDTH 539 0
DWIDTH 14 0
BBX 10 16 2 0
BITMAP
6180
3300
1e00
0c00
0000
0000
3380
f5c0
3980
3000
3000
3000
3000
3000
3000
fe00
ENDCHAR
STARTCHAR 249
ENCODING 249
SWIDTH 539 0
DWIDTH 14 0
BBX 12 17 1 0
BITMAP
0f00
1980
1980
1980
0f00
0000
0000
60c0
e1c0
60c0
60c0
60c0
60c0
60c0
60c0
71f0
3e60
ENDCHAR
STARTCHAR 250
ENCODING 250
SWIDTH 539 0
DWIDTH 14 0
BBX 12 16 1 0
BITMAP
0180
0380
0600
0c00
0000
0000
60c0
e1c0
60c0
60c0
60c0
60c0
60c0
60c0
71f0
3e60
ENDCHAR
STARTCHAR 251
ENCODING 251
SWIDTH 539 0
DWIDTH 14 0
BBX 12 16 1 0
BITMAP
0c60
1ce0
3180
6300
0000
0000
60c0
e1c0
60c0
60c0
60c0
60c0
60c0
60c0
71f0
3e60
ENDCHAR
STARTCHAR 252
ENCODING 252
SWIDTH 539 0
DWIDTH 14 0
BBX 12 15 1 0
BITMAP
30c0
79e0
30c0
0000
0000
60c0
e1c0
60c0
60c0
60c0
60c0
60c0
60c0
71f0
3e60
ENDCHAR
STARTCHAR 253
ENCODING 253
SWIDTH 539 0
DWIDTH 14 0
BBX 11 21 1 -5
BITMAP
0180
0380
0600
0c00
0000
0000
f1e0
60c0
60c0
3180
3180
1980
1b00
0b00
0e00
0600
0600
0c00
cc00
d800
7000
ENDCHAR
STARTCHAR 254
ENCODING 254
SWIDTH 539 0
DWIDTH 14 0
BBX 12 19 1 -5
BITMAP
1800
1800
1800
1800
ffc0
1800
1800
1800
1800
1800
1800
1830
1ce0
0f80
0600
0700
0300
0600
0c00
ENDCHAR
STARTCHAR 255
ENCODING 255
SWIDTH 539 0
DWIDTH 14 0
BBX 4 4 5 11
BITMAP
60
f0
f0
60
ENDCHAR
ENDFONT
